<svg viewBox="0 0 324 89" fill="none" xmlns="http://www.w3.org/2000/svg"><path d="M17.302 70.0413c-2.6867 0-5.208-.7027-7.564-2.108-2.31467-1.4467-4.17467-3.3894-5.58-5.828-1.40533-2.48-2.108-5.2287-2.108-8.246 0-2.976.70267-5.6627 2.108-8.06 1.40533-2.4387 3.286-4.34 5.642-5.704 2.356-1.364 4.8567-2.046 7.502-2.046 2.1493 0 4.1333.5993 5.952 1.798 1.86 1.1986 3.2653 2.9966 4.216 5.394v-7.192h13.02v31.496H27.47v-5.766c-2.0667 4.1746-5.456 6.262-10.168 6.262Zm4.03-9.796c1.6533 0 3.0587-.5787 4.216-1.736 1.1987-1.1987 1.8393-2.604 1.922-4.216v-.496c-.0827-1.6534-.744-3.0587-1.984-4.216-1.1987-1.1574-2.5833-1.736-4.154-1.736-1.736 0-3.224.62-4.464 1.86-1.1987 1.1986-1.798 2.6453-1.798 4.34 0 1.736.62 3.2033 1.86 4.402 1.24 1.1986 2.7073 1.798 4.402 1.798Zm36.3499 9.796c-3.5133 0-6.2413-1.0954-8.184-3.286-1.9013-2.232-2.852-5.27-2.852-9.114v-28.954l13.082-1.922v29.946c0 1.1573.2687 2.0046.806 2.542.5787.496 1.5707.744 2.976.744 1.0334 0 2.046-.248 3.038-.744l.434 8.68c-2.7693 1.4053-5.8693 2.108-9.3 2.108Zm23.4317 0c-3.5134 0-6.2414-1.0954-8.184-3.286-1.9014-2.232-2.852-5.27-2.852-9.114v-28.954l13.082-1.922v29.946c0 1.1573.2686 2.0046.806 2.542.5786.496 1.5706.744 2.976.744 1.0333 0 2.046-.248 3.038-.744l.434 8.68c-2.7694 1.4053-5.8694 2.108-9.3 2.108Zm28.8254 0c-3.472 0-6.572-.682-9.3-2.046-2.6865-1.364-4.7945-3.2447-6.3238-5.642-1.488-2.4387-2.232-5.2287-2.232-8.37 0-3.1414.7647-5.9107 2.294-8.308 1.5293-2.4387 3.6373-4.3194 6.3238-5.642 2.728-1.3227 5.828-1.984 9.3-1.984 3.514 0 6.614.682 9.3 2.046 2.728 1.3226 4.836 3.1826 6.324 5.58 1.488 2.3973 2.232 5.1666 2.232 8.308 0 3.1826-.764 5.9933-2.294 8.432-1.488 2.3973-3.596 4.278-6.324 5.642-2.686 1.3226-5.786 1.984-9.3 1.984Zm.124-9.3c1.695 0 3.08-.62 4.154-1.86 1.116-1.2814 1.674-2.914 1.674-4.898 0-1.984-.558-3.596-1.674-4.836-1.074-1.2814-2.459-1.922-4.154-1.922-1.694 0-3.1.6406-4.216 1.922-1.074 1.24-1.612 2.852-1.612 4.836 0 1.984.538 3.6166 1.612 4.898 1.116 1.24 2.522 1.86 4.216 1.86Zm35.777 9.3c-3.637 0-6.469-1.0334-8.494-3.1-2.025-2.108-3.038-5.0014-3.038-8.68v-12.09h-3.968v-7.688h4.898l5.766-11.718h6.262v11.718h7.192v7.688h-7.192v10.54c0 1.0333.331 1.8393.992 2.418.661.5786 1.591.868 2.79.868 1.116 0 2.129-.248 3.038-.744l.496 8.68c-1.033.62-2.377 1.1366-4.03 1.55-1.612.372-3.183.558-4.712.558Zm13.365-31.124h12.462v6.324c1.406-2.4387 2.997-4.2367 4.774-5.394 1.819-1.1987 3.968-1.798 6.448-1.798 2.439 0 4.547.62 6.324 1.86 1.819 1.1986 3.183 2.8313 4.092 4.898 2.646-4.5054 6.49-6.758 11.532-6.758 2.398 0 4.485.6406 6.262 1.922 1.819 1.2813 3.224 3.1413 4.216 5.58.992 2.3973 1.488 5.2286 1.488 8.494v15.5h-13.082v-15.5c0-2.108-.372-3.6994-1.116-4.774-.702-1.0747-1.694-1.612-2.976-1.612-1.405 0-2.624.5993-3.658 1.798-.992 1.1986-1.488 2.6453-1.488 4.34v15.748h-12.958v-15.5c0-2.108-.372-3.6994-1.116-4.774-.702-1.0747-1.715-1.612-3.038-1.612-1.405 0-2.604.5993-3.596 1.798-.992 1.1986-1.488 2.6453-1.488 4.34v15.748h-13.082v-30.628Zm79.693 31.124c-3.43 0-6.489-.682-9.176-2.046-2.645-1.4054-4.712-3.3067-6.2-5.704-1.488-2.4387-2.232-5.1874-2.232-8.246 0-3.1414.765-5.9314 2.294-8.37 1.53-2.4387 3.596-4.3194 6.2-5.642 2.604-1.3227 5.498-1.984 8.68-1.984 3.059 0 5.663.682 7.812 2.046 2.191 1.3226 3.824 3.1413 4.898 5.456 1.075 2.2733 1.612 4.836 1.612 7.688 0 .744-.041 1.2813-.124 1.612l-18.6 2.418c.496 1.4466 1.302 2.5006 2.418 3.162 1.116.62 2.584.93 4.402.93 2.811 0 5.849-.7234 9.114-2.17l1.55 8.308c-3.844 1.6946-8.06 2.542-12.648 2.542Zm4.278-20.584c-.661-2.604-2.232-3.906-4.712-3.906-1.488 0-2.666.558-3.534 1.674-.868 1.116-1.322 2.5626-1.364 4.34l9.61-2.108Zm14.115-10.54h12.462v6.324c2.398-4.7947 6.2-7.192 11.408-7.192 3.968 0 7.068 1.426 9.3 4.278 2.274 2.8106 3.41 6.7166 3.41 11.718v15.5h-13.02v-16.802c0-1.7774-.392-3.1414-1.178-4.092-.744-.9507-1.798-1.426-3.162-1.426-.992 0-1.963.3306-2.914.992-.95.62-1.736 1.5293-2.356 2.728-.578 1.1986-.868 2.5626-.868 4.092v14.508h-13.082v-30.628Zm55.598 31.124c-3.637 0-6.469-1.0334-8.494-3.1-2.025-2.108-3.038-5.0014-3.038-8.68v-12.09h-3.968v-7.688h4.898l5.766-11.718h6.262v11.718h7.192v7.688h-7.192v10.54c0 1.0333.331 1.8393.992 2.418.661.5786 1.591.868 2.79.868 1.116 0 2.129-.248 3.038-.744l.496 8.68c-1.033.62-2.377 1.1366-4.03 1.55-1.612.372-3.183.558-4.712.558Z" fill="#218A1F"/><path d="M213.818 83.1674c-.636 0-1.134-.174-1.494-.522-.36-.348-.54-.786-.54-1.314 0-.54.186-.978.558-1.314.372-.336.864-.504 1.476-.504.6 0 1.086.18 1.458.54.372.348.558.774.558 1.278 0 .564-.174 1.014-.522 1.35-.348.324-.846.486-1.494.486Zm7.815.036c-.96 0-1.812-.192-2.556-.576-.732-.396-1.308-.948-1.728-1.656-.408-.708-.612-1.512-.612-2.412 0-.864.216-1.65.648-2.358.432-.708 1.02-1.266 1.764-1.674.744-.408 1.572-.612 2.484-.612 1.164 0 2.082.24 2.754.72l-.342 2.394c-.684-.204-1.248-.306-1.692-.306-.576 0-1.032.168-1.368.504-.336.324-.504.768-.504 1.332 0 .564.168 1.014.504 1.35.336.336.78.504 1.332.504.48 0 1.044-.102 1.692-.306l.342 2.52c-.408.204-.822.348-1.242.432-.42.096-.912.144-1.476.144Zm8.673 0c-1.008 0-1.908-.198-2.7-.594-.78-.396-1.392-.942-1.836-1.638-.432-.708-.648-1.518-.648-2.43 0-.912.222-1.716.666-2.412.444-.708 1.056-1.254 1.836-1.638.792-.384 1.692-.576 2.7-.576 1.02 0 1.92.198 2.7.594.792.384 1.404.924 1.836 1.62.432.696.648 1.5.648 2.412 0 .924-.222 1.74-.666 2.448-.432.696-1.044 1.242-1.836 1.638-.78.384-1.68.576-2.7.576Zm.036-2.7c.492 0 .894-.18 1.206-.54.324-.372.486-.846.486-1.422s-.162-1.044-.486-1.404c-.312-.372-.714-.558-1.206-.558s-.9.186-1.224.558c-.312.36-.468.828-.468 1.404s.156 1.05.468 1.422c.324.36.732.54 1.224.54Zm6.515-6.336h3.618v1.836c.408-.708.87-1.23 1.386-1.566.528-.348 1.152-.522 1.872-.522.708 0 1.32.18 1.836.54.528.348.924.822 1.188 1.422.768-1.308 1.884-1.962 3.348-1.962.696 0 1.302.186 1.818.558.528.372.936.912 1.224 1.62.288.696.432 1.518.432 2.466v4.5h-3.798v-4.5c0-.612-.108-1.074-.324-1.386-.204-.312-.492-.468-.864-.468-.408 0-.762.174-1.062.522-.288.348-.432.768-.432 1.26v4.572h-3.762v-4.5c0-.612-.108-1.074-.324-1.386-.204-.312-.498-.468-.882-.468-.408 0-.756.174-1.044.522-.288.348-.432.768-.432 1.26v4.572h-3.798v-8.892Zm18.475 0h3.618v1.836c.408-.708.87-1.23 1.386-1.566.528-.348 1.152-.522 1.872-.522.708 0 1.32.18 1.836.54.528.348.924.822 1.188 1.422.768-1.308 1.884-1.962 3.348-1.962.696 0 1.302.186 1.818.558.528.372.936.912 1.224 1.62.288.696.432 1.518.432 2.466v4.5h-3.798v-4.5c0-.612-.108-1.074-.324-1.386-.204-.312-.492-.468-.864-.468-.408 0-.762.174-1.062.522-.288.348-.432.768-.432 1.26v4.572h-3.762v-4.5c0-.612-.108-1.074-.324-1.386-.204-.312-.498-.468-.882-.468-.408 0-.756.174-1.044.522-.288.348-.432.768-.432 1.26v4.572h-3.798v-8.892Zm23.192 9.036c-.948 0-1.794-.168-2.538-.504-.732-.336-1.302-.81-1.71-1.422-.408-.612-.612-1.308-.612-2.088v-5.148h3.708v5.094c0 .396.108.708.324.936.228.216.51.324.846.324.324 0 .588-.108.792-.324.216-.228.324-.54.324-.936v-5.094h3.636v5.148c0 .792-.204 1.494-.612 2.106-.396.6-.954 1.068-1.674 1.404-.72.336-1.548.504-2.484.504Zm6.515-9.036h3.618v1.836c.696-1.392 1.8-2.088 3.312-2.088 1.152 0 2.052.414 2.7 1.242.66.816.99 1.95.99 3.402v4.5h-3.78v-4.878c0-.516-.114-.912-.342-1.188-.216-.276-.522-.414-.918-.414-.288 0-.57.096-.846.288-.276.18-.504.444-.684.792-.168.348-.252.744-.252 1.188v4.212h-3.798v-8.892Zm15.525 9.036c-1.008 0-1.794-.324-2.358-.972-.564-.648-.846-1.53-.846-2.646v-5.544h3.816v5.382c0 .276.072.492.216.648.156.144.354.216.594.216s.486-.072.738-.216l.198 2.502c-.264.204-.612.36-1.044.468-.42.108-.858.162-1.314.162Zm-1.296-10.512c-.564 0-1.044-.174-1.44-.522-.384-.36-.576-.798-.576-1.314s.204-.948.612-1.296c.408-.348.876-.522 1.404-.522.552 0 1.026.18 1.422.54.408.36.612.786.612 1.278 0 .528-.204.966-.612 1.314-.408.348-.882.522-1.422.522Zm8.451 10.512c-1.056 0-1.878-.3-2.466-.9-.588-.612-.882-1.452-.882-2.52v-3.51h-1.152v-2.232h1.422l1.674-3.402h1.818v3.402h2.088v2.232h-2.088v3.06c0 .3.096.534.288.702.192.168.462.252.81.252.324 0 .618-.072.882-.216l.144 2.52c-.3.18-.69.33-1.17.45-.468.108-.924.162-1.368.162Zm8.668 3.978c-.66 0-1.29-.066-1.89-.198l.288-2.664c.468.072.9.108 1.296.108.708 0 1.248-.216 1.62-.648.372-.42.564-1.218.576-2.394-.624 1.2-1.626 1.8-3.006 1.8-1.164 0-2.076-.408-2.736-1.224-.648-.828-.972-1.968-.972-3.42v-4.5h3.78v5.058c0 .408.114.75.342 1.026.228.264.54.396.936.396.408 0 .738-.174.99-.522.264-.348.396-.804.396-1.368v-4.59h3.798v6.732c0 2.088-.468 3.678-1.404 4.77-.936 1.092-2.274 1.638-4.014 1.638Z" fill="#115F10"/></svg>
